<svg viewBox="-850 -510 1700 1020" width="1700" height="1020" style="background-color: rgb(255, 255, 255);" xmlns="http://www.w3.org/2000/svg"><path d="M-339.080318132398,80.81156727084654L-341.39366452459853,80.12380515989047M-341.39366452459853,-442.79169053655323L-341.39366452459853,80.12380515989047M-341.39366452459853,80.12380515989047L-723.5549080574488,201.3871895909804M-339.080318132398,-442.1039284255972L-339.080318132398,80.81156727084654M-339.080318132398,80.81156727084654L-721.2415616652482,202.07495170193644M-274.3066191507837,100.06890637761589L-323.6580088510613,85.3966480105535M-323.6580088510613,-437.5188476858902L-323.6580088510613,85.3966480105535M-323.6580088510613,85.3966480105535L-705.8192523839116,206.66003244164347" style="fill:none;stroke:rgb(0,0,0);stroke-width:1;stroke-linecap:round"></path><path d="M-339.080318132398,80.81156727084654L-341.39366452459853,80.12380515989048L-341.39366452459853,-442.79169053655323z" style="fill:rgb(238,238,238); fill-opacity: 0.4"></path><path d="M-274.3066191507837,-422.84658931882785L-274.3066191507837,100.06890637761589M-274.3066191507837,100.06890637761589L-656.467862683634,221.33229080870578" style="fill:none;stroke:rgb(0,0,0);stroke-width:1;stroke-linecap:round"></path><path d="M-274.3066191507836,100.06890637761587L-323.6580088510613,85.39664801055352L-323.6580088510613,-437.5188476858902zM-339.080318132398,-442.1039284255972L-339.080318132398,80.81156727084654L-341.39366452459853,-442.79169053655323z" style="fill:rgb(238,238,238); fill-opacity: 0.4"></path><path d="M-387.8531764599364,-129.70502033491823L-390.1665228521369,-130.39278244587427M-390.1665228521369,-136.52069841106697L-390.1665228521369,-130.39278244587427M-390.1665228521369,-130.39278244587427L-394.64497492478745,-128.97172715957242" style="fill:none;stroke:rgb(0,0,0);stroke-width:1;stroke-linecap:round"></path><path d="M-387.8531764599364,-129.7050203349182L-390.1665228521369,-130.39278244587425L-390.1665228521369,-136.52069841106697z" style="fill:rgb(153,221,255); fill-opacity: 0.4"></path><path d="M-387.8531764599364,-135.83293630011093L-390.1665228521369,-136.52069841106697M-390.1665228521369,-136.52069841106697L-394.64497492478745,-135.09964312476512M-387.8531764599364,-135.83293630011093L-387.8531764599364,-129.70502033491823M-387.8531764599364,-129.70502033491823L-392.33162853258693,-128.2839650486164M-387.8531777816522,-135.8329354040106L-387.8531777816522,-129.7050194388179M-387.8531777816522,-129.7050194388179L-392.33162985430283,-128.2839641525161M-387.8531777816522,-129.7050194388179L-374.6700945366408,-127.47336903855636" style="fill:none;stroke:rgb(0,0,0);stroke-width:1;stroke-linecap:round"></path><path d="M-394.64497492478745,-128.9717271595724L-390.1665228521369,-130.39278244587425L-387.8531764599364,-129.7050203349182zM-387.8531764599364,-135.8329363001109L-387.8531764599364,-129.7050203349182L-390.1665228521369,-136.52069841106697zM-390.1665228521369,-136.52069841106697L-390.1665228521369,-130.39278244587425L-394.64497492478745,-135.09964312476512zM-390.1665228521369,-130.39278244587425L-394.64497492478745,-128.9717271595724L-394.64497492478745,-135.09964312476512z" style="fill:rgb(153,221,255); fill-opacity: 0.4"></path><path d="M-387.8531764599364,-135.83293630011093L-392.33162853258693,-134.41188101380908M-387.8531777816522,-135.8329354040106L-392.33162985430283,-134.41188011770876M-387.8531777816522,-135.8329354040106L-374.6700945366408,-127.47336903855636" style="fill:none;stroke:rgb(0,0,0);stroke-width:1;stroke-linecap:round"></path><path d="M-392.33162853258693,-128.28396504861638L-387.8531764599364,-129.7050203349182L-387.8531764599364,-135.8329363001109z" style="fill:rgb(153,221,255); fill-opacity: 0.4"></path><path d="M-387.8531764599364,-135.8329363001109L-387.8531764599364,-129.7050203349182L-392.33162853258693,-128.28396504861638z" style="fill:rgb(255,187,187); fill-opacity: 0.4"></path><path d="M-392.33162853258693,-128.28396504861638L-394.64497492478745,-128.9717271595724L-387.8531764599364,-129.7050203349182z" style="fill:rgb(153,221,255); fill-opacity: 0.4"></path><path d="M-394.64497492478745,-135.09964312476512L-394.64497492478745,-128.97172715957242M-394.64497492478745,-128.97172715957242L-392.33162853258693,-128.2839650486164" style="fill:none;stroke:rgb(0,0,0);stroke-width:1;stroke-linecap:round"></path><path d="M-392.33162853258693,-134.41188101380905L-387.8531764599364,-135.8329363001109L-390.1665228521369,-136.52069841106697z" style="fill:rgb(153,221,255); fill-opacity: 0.4"></path><path d="M-723.5549080574489,201.38718959098043L-341.39366452459853,80.12380515989048L-339.080318132398,80.81156727084654z" style="fill:rgb(238,238,238); fill-opacity: 0.4"></path><path d="M-394.64497492478745,-135.09964312476512L-392.33162853258693,-134.41188101380905L-390.1665228521369,-136.52069841106697z" style="fill:rgb(153,221,255); fill-opacity: 0.4"></path><path d="M-394.64497492478745,-135.09964312476512L-392.33162853258693,-134.41188101380908" style="fill:none;stroke:rgb(0,0,0);stroke-width:1;stroke-linecap:round"></path><path d="M-392.33162853258693,-134.41188101380905L-392.33162853258693,-128.28396504861638L-387.8531764599364,-135.8329363001109z" style="fill:rgb(153,221,255); fill-opacity: 0.4"></path><path d="M-387.8531764599364,-135.8329363001109L-392.33162853258693,-128.28396504861638L-392.33162853258693,-134.41188101380905z" style="fill:rgb(255,187,187); fill-opacity: 0.4"></path><path d="M-394.64497492478745,-135.09964312476512L-394.64497492478745,-128.9717271595724L-392.33162853258693,-134.41188101380905zM-394.64497492478745,-128.9717271595724L-392.33162853258693,-128.28396504861638L-392.33162853258693,-134.41188101380905z" style="fill:rgb(153,221,255); fill-opacity: 0.4"></path><path d="M-392.33162853258693,-134.41188101380908L-392.33162853258693,-128.2839650486164M-392.33162985430283,-128.2839641525161L-392.33162985430283,-134.41188011770876M-392.33162985430283,-128.2839641525161L-374.6700945366408,-127.47336903855636M-392.33162985430283,-134.41188011770876L-374.6700945366408,-127.47336903855636" style="fill:none;stroke:rgb(0,0,0);stroke-width:1;stroke-linecap:round"></path><path d="M-387.8531764599364,-129.7050203349182L-387.8531764599364,-135.8329363001109L-374.6700932149249,-127.47336993465665zM-392.33162853258693,-128.28396504861638L-387.8531764599364,-129.7050203349182L-374.6700932149249,-127.47336993465665zM-387.8531764599364,-135.8329363001109L-392.33162853258693,-134.41188101380905L-374.6700932149249,-127.47336993465665zM-392.33162853258693,-134.41188101380905L-392.33162853258693,-128.28396504861638L-374.6700932149249,-127.47336993465665z" style="fill:rgb(255,187,187); fill-opacity: 0.4"></path><path d="M-705.8192523839116,206.66003244164347L-323.6580088510613,85.39664801055352L-274.3066191507836,100.06890637761587zM-274.3066191507836,-422.84658931882785L-274.3066191507836,100.06890637761587L-323.6580088510613,-437.5188476858902z" style="fill:rgb(238,238,238); fill-opacity: 0.4"></path><path d="M-339.080318132398,-442.1039284255972L-341.39366452459853,-442.79169053655323M-341.39366452459853,-442.79169053655323L-723.5549080574488,-321.5283061054633M-339.080318132398,-442.1039284255972L-721.2415616652482,-320.84054399450724" style="fill:none;stroke:rgb(0,0,0);stroke-width:1;stroke-linecap:round"></path><path d="M-721.2415616652484,202.07495170193644L-339.080318132398,80.81156727084654L-339.080318132398,-442.1039284255972z" style="fill:rgb(238,238,238); fill-opacity: 0.4"></path><path d="M-274.3066191507837,-422.84658931882785L-323.6580088510613,-437.5188476858902M-323.6580088510613,-437.5188476858902L-705.8192523839116,-316.25546325480025M-255.7218413521043,33.585476035109124L-354.42462075265945,4.240959300984436M-354.42462075265945,-257.2167885472374L-354.42462075265945,4.240959300984436M-354.42462075265945,4.240959300984436L-545.5052425190846,64.87265151652939M-274.3066191507837,-422.84658931882785L-656.467862683634,-301.58320488773785" style="fill:none;stroke:rgb(0,0,0);stroke-width:1;stroke-linecap:round"></path><path d="M-341.39366452459853,-442.79169053655323L-341.39366452459853,80.12380515989048L-723.5549080574489,-321.5283061054633zM-656.467862683634,221.3322908087058L-274.3066191507836,100.06890637761587L-274.3066191507836,-422.84658931882785zM-721.2415616652484,202.07495170193644L-723.5549080574489,201.38718959098043L-339.080318132398,80.81156727084654zM-323.6580088510613,-437.5188476858902L-323.6580088510613,85.39664801055352L-705.8192523839116,-316.25546325480025zM-255.7218413521043,33.58547603510912L-354.42462075265945,4.240959300984415L-354.42462075265945,-257.2167885472374zM-721.2415616652484,-320.84054399450724L-339.080318132398,-442.1039284255972L-341.39366452459853,-442.79169053655323z" style="fill:rgb(238,238,238); fill-opacity: 0.4"></path><path d="M-255.7218413521043,-227.87227181311272L-354.42462075265945,-257.2167885472374M-354.42462075265945,-257.2167885472374L-545.5052425190846,-196.58509633169245" style="fill:none;stroke:rgb(0,0,0);stroke-width:1;stroke-linecap:round"></path><path d="M-656.467862683634,221.3322908087058L-705.8192523839116,206.66003244164347L-274.3066191507836,100.06890637761587z" style="fill:rgb(238,238,238); fill-opacity: 0.4"></path><path d="M-255.7218413521043,-227.87227181311272L-255.7218413521043,33.585476035109124M-255.7218413521043,33.585476035109124L-446.8024631185294,94.21716825065408" style="fill:none;stroke:rgb(0,0,0);stroke-width:1;stroke-linecap:round"></path><path d="M-545.5052425190846,64.87265151652937L-354.42462075265945,4.240959300984415L-255.7218413521043,33.58547603510912zM-341.39366452459853,80.12380515989048L-723.5549080574489,201.38718959098043L-723.5549080574489,-321.5283061054633zM-323.6580088510613,85.39664801055352L-705.8192523839116,206.66003244164347L-705.8192523839116,-316.25546325480025zM-255.7218413521043,-227.87227181311272L-255.7218413521043,33.58547603510912L-354.42462075265945,-257.2167885472374zM-354.42462075265945,-257.2167885472374L-354.42462075265945,4.240959300984415L-545.5052425190846,-196.58509633169245zM-656.467862683634,-301.5832048877379L-274.3066191507836,-422.84658931882785L-323.6580088510613,-437.5188476858902zM-721.2415616652484,-320.84054399450724L-721.2415616652484,202.07495170193644L-339.080318132398,-442.1039284255972zM-354.42462075265945,4.240959300984415L-545.5052425190846,64.87265151652937L-545.5052425190846,-196.58509633169245z" style="fill:rgb(238,238,238); fill-opacity: 0.4"></path><path d="M-723.5549080574488,-321.5283061054633L-723.5549080574488,201.3871895909804M-723.5549080574488,201.3871895909804L-721.2415616652482,202.07495170193644M-721.2415616652482,-320.84054399450724L-721.2415616652482,202.07495170193644M-90.66412871126352,46.6530763348963L-288.06968751237383,-12.035957133353113M-288.06968751237383,-142.76483105746402L-288.06968751237383,-12.035957133353113M-288.06968751237383,-12.035957133353113L-383.6099983955864,18.279888974419364M-255.7218413521043,-227.87227181311272L-446.8024631185294,-167.24057959756774M-705.8192523839116,-316.25546325480025L-705.8192523839116,206.66003244164347M-705.8192523839116,206.66003244164347L-656.467862683634,221.33229080870578" style="fill:none;stroke:rgb(0,0,0);stroke-width:1;stroke-linecap:round"></path><path d="M-446.8024631185295,94.21716825065408L-255.7218413521043,33.58547603510912L-255.7218413521043,-227.87227181311272zM-446.8024631185295,94.21716825065408L-545.5052425190846,64.87265151652937L-255.7218413521043,33.58547603510912z" style="fill:rgb(238,238,238); fill-opacity: 0.4"></path><path d="M-545.5052425190846,-196.58509633169245L-545.5052425190846,64.87265151652939M-545.5052425190846,64.87265151652939L-446.8024631185294,94.21716825065408M-102.65485829043665,38.40916893636908L-300.060417091547,-20.27986453188033M-300.060417091547,-26.407780497073034L-300.060417091547,-20.27986453188033M-300.060417091547,-20.27986453188033L-304.53886916419754,-18.8588092455785M-102.65485829043665,32.281252971176386L-300.060417091547,-26.407780497073034M-300.060417091547,-26.407780497073034L-304.53886916419754,-24.986725210771198" style="fill:none;stroke:rgb(0,0,0);stroke-width:1;stroke-linecap:round"></path><path d="M-300.060417091547,-26.407780497073034L-300.060417091547,-20.279864531880328L-304.53886916419754,-24.9867252107712zM-300.060417091547,-20.279864531880328L-304.53886916419754,-18.858809245578495L-304.53886916419754,-24.9867252107712z" style="fill:rgb(153,221,255); fill-opacity: 0.4"></path><path d="M-304.53886916419754,-24.986725210771198L-304.53886916419754,-18.8588092455785M-304.53886916419754,-18.8588092455785L-107.13331036308725,39.830224222670914M-304.53886916419754,-24.986725210771198L-107.13331036308725,33.702308257478215M-540.8592310317323,-271.36428224443296L-488.82053743343795,-179.58839291995247M-540.8592310317323,-265.23636627924026L-488.82053743343795,-179.58839291995247M-545.337678548666,-263.81531243851066L-488.82053743343795,-179.58839291995247M-545.337678548666,-269.94322840370336L-488.82053743343795,-179.58839291995247" style="fill:none;stroke:rgb(0,0,0);stroke-width:1;stroke-linecap:round"></path><path d="M-446.8024631185295,-167.24057959756774L-255.7218413521043,-227.87227181311272L-354.42462075265945,-257.2167885472374zM-723.5549080574489,-321.5283061054633L-721.2415616652484,-320.84054399450724L-341.39366452459853,-442.79169053655323z" style="fill:rgb(238,238,238); fill-opacity: 0.4"></path><path d="M-403.77644410372443,-117.1582406335824L-502.47922350427956,-146.50275736770712M-502.47922350427956,-152.6306733328998L-502.47922350427956,-146.50275736770712M-502.47922350427956,-146.50275736770712L-506.95767557693017,-145.08170208140527M-403.77644410372443,-123.28615659877511L-502.47922350427956,-152.6306733328998M-502.47922350427956,-152.6306733328998L-506.95767557693017,-151.20961804659797M-540.8592287586507,-265.236362345318L-590.2106184589284,-279.9086207123804M-590.2106184589284,-286.03653667757305L-590.2106184589284,-279.9086207123804M-590.2106184589284,-279.9086207123804L-594.6890705315789,-278.4875654260785" style="fill:none;stroke:rgb(0,0,0);stroke-width:1;stroke-linecap:round"></path><path d="M-502.47922350427956,-152.63067333289982L-502.47922350427956,-146.50275736770712L-506.95767557693017,-151.209618046598z" style="fill:rgb(153,221,255); fill-opacity: 0.4"></path><path d="M-656.467862683634,-301.5832048877379L-656.467862683634,221.3322908087058L-274.3066191507836,-422.84658931882785z" style="fill:rgb(238,238,238); fill-opacity: 0.4"></path><path d="M-502.47922350427956,-146.50275736770712L-506.95767557693017,-145.08170208140527L-506.95767557693017,-151.209618046598z" style="fill:rgb(153,221,255); fill-opacity: 0.4"></path><path d="M-540.8592287586507,-271.36427831051077L-590.2106184589284,-286.03653667757305M-590.2106184589284,-286.03653667757305L-594.6890705315789,-284.6154813912712M-506.95767557693017,-151.20961804659797L-506.95767557693017,-145.08170208140527M-506.95767557693017,-145.08170208140527L-408.25489617637504,-115.73718534728057" style="fill:none;stroke:rgb(0,0,0);stroke-width:1;stroke-linecap:round"></path><path d="M-590.2106184589284,-286.03653667757305L-590.2106184589284,-279.9086207123804L-594.6890705315789,-284.6154813912712zM-590.2106184589284,-279.9086207123804L-594.6890705315789,-278.48756542607856L-594.6890705315789,-284.6154813912712z" style="fill:rgb(153,221,255); fill-opacity: 0.4"></path><path d="M-90.66412871126352,-84.07579758921462L-288.06968751237383,-142.76483105746402M-288.06968751237383,-142.76483105746402L-383.6099983955864,-112.44898494969155M-506.95767557693017,-151.20961804659797L-408.25489617637504,-121.86510131247327M-594.6890705315789,-284.6154813912712L-594.6890705315789,-278.4875654260785M-594.6890705315789,-278.4875654260785L-545.3376808313013,-263.8153070590162M-594.6890705315789,-284.6154813912712L-545.3376808313013,-269.94322302420886" style="fill:none;stroke:rgb(0,0,0);stroke-width:1;stroke-linecap:round"></path><path d="M-723.5549080574489,201.38718959098043L-721.2415616652484,202.07495170193644L-721.2415616652484,-320.84054399450724z" style="fill:rgb(238,238,238); fill-opacity: 0.4"></path><path d="M-656.467862683634,-301.58320488773785L-656.467862683634,221.33229080870578" style="fill:none;stroke:rgb(0,0,0);stroke-width:1;stroke-linecap:round"></path><path d="M-540.8592287586507,-265.236362345318L-590.2106184589284,-279.9086207123804L-590.2106184589284,-286.03653667757305zM-594.6890705315789,-278.48756542607856L-590.2106184589284,-279.9086207123804L-540.8592287586507,-265.236362345318zM-594.6890705315789,-284.6154813912712L-545.3376808313013,-269.94322302420886L-590.2106184589284,-286.03653667757305zM-594.6890705315789,-284.6154813912712L-594.6890705315789,-278.48756542607856L-545.3376808313013,-269.94322302420886z" style="fill:rgb(153,221,255); fill-opacity: 0.4"></path><path d="M-288.06968751237383,-142.76483105746402L-288.06968751237383,-12.035957133353111L-383.6099983955864,-112.44898494969155zM-705.8192523839116,-316.25546325480025L-656.467862683634,-301.5832048877379L-323.6580088510613,-437.5188476858902zM-545.5052425190846,-196.58509633169245L-446.8024631185295,-167.24057959756774L-354.42462075265945,-257.2167885472374z" style="fill:rgb(238,238,238); fill-opacity: 0.4"></path><path d="M-403.77644410372443,-117.15824063358241L-502.47922350427956,-146.50275736770712L-502.47922350427956,-152.63067333289982z" style="fill:rgb(153,221,255); fill-opacity: 0.4"></path><path d="M-540.8592287586507,-265.236362345318L-540.8592287586507,-271.3642783105107L-488.82053857475563,-179.58839023020525z" style="fill:rgb(255,187,187); fill-opacity: 0.4"></path><path d="M-506.95767557693017,-145.08170208140527L-502.47922350427956,-146.50275736770712L-403.77644410372443,-117.15824063358241z" style="fill:rgb(153,221,255); fill-opacity: 0.4"></path><path d="M-545.3376808313013,-263.8153070590162L-540.8592287586507,-265.236362345318L-488.82053857475563,-179.58839023020525zM-540.8592287586507,-271.3642783105107L-545.3376808313013,-269.94322302420886L-488.82053857475563,-179.58839023020525z" style="fill:rgb(255,187,187); fill-opacity: 0.4"></path><path d="M-540.8592287586507,-271.3642783105107L-540.8592287586507,-265.236362345318L-590.2106184589284,-286.03653667757305z" style="fill:rgb(153,221,255); fill-opacity: 0.4"></path><path d="M-545.3376808313013,-269.94322302420886L-545.3376808313013,-263.8153070590162L-488.82053857475563,-179.58839023020525z" style="fill:rgb(255,187,187); fill-opacity: 0.4"></path><path d="M-506.95767557693017,-151.209618046598L-408.25489617637504,-121.86510131247329L-502.47922350427956,-152.63067333289982zM-545.3376808313013,-263.8153070590162L-594.6890705315789,-278.48756542607856L-540.8592287586507,-265.236362345318zM-545.3376808313013,-269.94322302420886L-540.8592287586507,-271.3642783105107L-590.2106184589284,-286.03653667757305zM-506.95767557693017,-151.209618046598L-506.95767557693017,-145.08170208140527L-408.25489617637504,-121.86510131247329zM-594.6890705315789,-278.48756542607856L-545.3376808313013,-263.8153070590162L-545.3376808313013,-269.94322302420886z" style="fill:rgb(153,221,255); fill-opacity: 0.4"></path><path d="M-90.66412871126349,46.6530763348963L-288.06968751237383,-12.035957133353111L-288.06968751237383,-142.76483105746402zM-288.06968751237383,-12.035957133353111L-383.6099983955864,18.279888974419364L-383.6099983955864,-112.44898494969155z" style="fill:rgb(238,238,238); fill-opacity: 0.4"></path><path d="M-102.65485829043664,38.40916893636908L-300.060417091547,-20.279864531880328L-300.060417091547,-26.407780497073034zM-304.53886916419754,-18.858809245578495L-300.060417091547,-20.279864531880328L-102.65485829043664,38.40916893636908zM-304.53886916419754,-24.9867252107712L-107.13331036308722,33.70230825747821L-300.060417091547,-26.407780497073034zM-304.53886916419754,-24.9867252107712L-304.53886916419754,-18.858809245578495L-107.13331036308722,33.70230825747821z" style="fill:rgb(153,221,255); fill-opacity: 0.4"></path><path d="M-540.8592287586507,-271.36427831051077L-540.8592287586507,-265.236362345318M-540.8592287586507,-265.236362345318L-545.3376808313013,-263.8153070590162M-540.8592310317323,-271.36428224443296L-540.8592310317323,-265.23636627924026M-540.8592310317323,-265.23636627924026L-545.337678548666,-263.81531243851066M-540.8592287586507,-271.36427831051077L-545.3376808313013,-269.94322302420886M-540.8592310317323,-271.36428224443296L-545.337678548666,-269.94322840370336" style="fill:none;stroke:rgb(0,0,0);stroke-width:1;stroke-linecap:round"></path><path d="M-545.3376808313013,-263.8153070590162L-540.8592287586507,-265.236362345318L-540.8592287586507,-271.3642783105107z" style="fill:rgb(153,221,255); fill-opacity: 0.4"></path><path d="M-540.8592287586507,-271.3642783105107L-540.8592287586507,-265.236362345318L-545.3376808313013,-263.8153070590162zM-540.8592287586507,-271.3642783105107L-545.3376808313013,-263.8153070590162L-545.3376808313013,-269.94322302420886z" style="fill:rgb(255,187,187); fill-opacity: 0.4"></path><path d="M-545.3376808313013,-269.94322302420886L-545.3376808313013,-263.8153070590162L-540.8592287586507,-271.3642783105107z" style="fill:rgb(153,221,255); fill-opacity: 0.4"></path><path d="M-545.337678548666,-263.81531243851066L-545.337678548666,-269.94322840370336M-545.3376808313013,-269.94322302420886L-545.3376808313013,-263.8153070590162" style="fill:none;stroke:rgb(0,0,0);stroke-width:1;stroke-linecap:round"></path><path d="M-383.6099983955864,18.279888974419364L-288.06968751237383,-12.035957133353111L-90.66412871126349,46.6530763348963zM-705.8192523839116,206.66003244164347L-656.467862683634,221.3322908087058L-656.467862683634,-301.5832048877379z" style="fill:rgb(238,238,238); fill-opacity: 0.4"></path><path d="M-383.6099983955864,-112.44898494969155L-383.6099983955864,18.279888974419364M-383.6099983955864,18.279888974419364L-186.20443959447607,76.96892244266878" style="fill:none;stroke:rgb(0,0,0);stroke-width:1;stroke-linecap:round"></path><path d="M-403.77644410372443,-123.28615659877512L-403.77644410372443,-117.15824063358241L-502.47922350427956,-152.63067333289982z" style="fill:rgb(153,221,255); fill-opacity: 0.4"></path><path d="M-545.5052425190846,-196.58509633169245L-446.8024631185294,-167.24057959756774" style="fill:none;stroke:rgb(0,0,0);stroke-width:1;stroke-linecap:round"></path><path d="M-446.8024631185295,-167.24057959756774L-446.8024631185295,94.21716825065408L-255.7218413521043,-227.87227181311272z" style="fill:rgb(238,238,238); fill-opacity: 0.4"></path><path d="M-408.25489617637504,-115.73718534728059L-506.95767557693017,-145.08170208140527L-403.77644410372443,-117.15824063358241zM-408.25489617637504,-121.86510131247329L-403.77644410372443,-123.28615659877512L-502.47922350427956,-152.63067333289982z" style="fill:rgb(153,221,255); fill-opacity: 0.4"></path><path d="M-545.5052425190846,-196.58509633169245L-545.5052425190846,64.87265151652937L-446.8024631185295,-167.24057959756774z" style="fill:rgb(238,238,238); fill-opacity: 0.4"></path><path d="M-506.95767557693017,-145.08170208140527L-408.25489617637504,-115.73718534728059L-408.25489617637504,-121.86510131247329z" style="fill:rgb(153,221,255); fill-opacity: 0.4"></path><path d="M-545.5052425190846,64.87265151652937L-446.8024631185295,94.21716825065408L-446.8024631185295,-167.24057959756774zM-723.5549080574489,-321.5283061054633L-723.5549080574489,201.38718959098043L-721.2415616652484,-320.84054399450724z" style="fill:rgb(238,238,238); fill-opacity: 0.4"></path><path d="M-446.8024631185294,-167.24057959756774L-446.8024631185294,94.21716825065408M-403.7764446112527,-123.28615747711426L-363.2166021601107,-88.58453107659116M-403.7764446112527,-117.15824151192156L-363.2166021601107,-88.58453107659116M-408.2548966839033,-115.73718622561972L-363.2166021601107,-88.58453107659116M-408.2548966839033,-121.86510219081242L-363.2166021601107,-88.58453107659116" style="fill:none;stroke:rgb(0,0,0);stroke-width:1;stroke-linecap:round"></path><path d="M-403.77644410372443,-117.15824063358241L-403.77644410372443,-123.28615659877512L-363.2166019063465,-88.5845306374216zM-408.25489617637504,-115.73718534728059L-403.77644410372443,-117.15824063358241L-363.2166019063465,-88.5845306374216zM-403.77644410372443,-123.28615659877512L-408.25489617637504,-121.86510131247329L-363.2166019063465,-88.5845306374216zM-408.25489617637504,-121.86510131247329L-408.25489617637504,-115.73718534728059L-363.2166019063465,-88.5845306374216z" style="fill:rgb(255,187,187); fill-opacity: 0.4"></path><path d="M-403.77644410372443,-123.28615659877511L-403.77644410372443,-117.1582406335824M-403.77644410372443,-117.1582406335824L-408.25489617637504,-115.73718534728057M-403.7764446112527,-123.28615747711426L-403.7764446112527,-117.15824151192156M-403.7764446112527,-117.15824151192156L-408.2548966839033,-115.73718622561972M-403.77644410372443,-123.28615659877511L-408.25489617637504,-121.86510131247327M-403.7764446112527,-123.28615747711426L-408.2548966839033,-121.86510219081242" style="fill:none;stroke:rgb(0,0,0);stroke-width:1;stroke-linecap:round"></path><path d="M-408.25489617637504,-115.73718534728059L-403.77644410372443,-117.15824063358241L-403.77644410372443,-123.28615659877512z" style="fill:rgb(153,221,255); fill-opacity: 0.4"></path><path d="M-403.77644410372443,-123.28615659877512L-403.77644410372443,-117.15824063358241L-408.25489617637504,-115.73718534728059z" style="fill:rgb(255,187,187); fill-opacity: 0.4"></path><path d="M-408.25489617637504,-121.86510131247329L-408.25489617637504,-115.73718534728059L-403.77644410372443,-123.28615659877512z" style="fill:rgb(153,221,255); fill-opacity: 0.4"></path><path d="M-403.77644410372443,-123.28615659877512L-408.25489617637504,-115.73718534728059L-408.25489617637504,-121.86510131247329z" style="fill:rgb(255,187,187); fill-opacity: 0.4"></path><path d="M-408.25489617637504,-121.86510131247327L-408.25489617637504,-115.73718534728057M-408.2548966839033,-115.73718622561972L-408.2548966839033,-121.86510219081242" style="fill:none;stroke:rgb(0,0,0);stroke-width:1;stroke-linecap:round"></path><path d="M-705.8192523839116,-316.25546325480025L-705.8192523839116,206.66003244164347L-656.467862683634,-301.5832048877379z" style="fill:rgb(238,238,238); fill-opacity: 0.4"></path><path d="M-383.6099983955864,-112.44898494969155L-186.20443959447607,-53.759951481442144" style="fill:none;stroke:rgb(0,0,0);stroke-width:1;stroke-linecap:round"></path><path d="M-102.65485829043664,32.28125297117638L-102.65485829043664,38.40916893636908L-300.060417091547,-26.407780497073034zM-107.13331036308722,39.830224222670914L-304.53886916419754,-18.858809245578495L-102.65485829043664,38.40916893636908zM-107.13331036308722,33.70230825747821L-102.65485829043664,32.28125297117638L-300.060417091547,-26.407780497073034zM-304.53886916419754,-18.858809245578495L-107.13331036308722,39.830224222670914L-107.13331036308722,33.70230825747821z" style="fill:rgb(153,221,255); fill-opacity: 0.4"></path><path d="M-90.66412871126349,-84.07579758921462L-90.66412871126349,46.6530763348963L-288.06968751237383,-142.76483105746402z" style="fill:rgb(238,238,238); fill-opacity: 0.4"></path><path d="M-723.5549080574488,-321.5283061054633L-721.2415616652482,-320.84054399450724" style="fill:none;stroke:rgb(0,0,0);stroke-width:1;stroke-linecap:round"></path><path d="M-383.6099983955864,-112.44898494969155L-186.20443959447607,-53.759951481442144L-288.06968751237383,-142.76483105746402z" style="fill:rgb(238,238,238); fill-opacity: 0.4"></path><path d="M-705.8192523839116,-316.25546325480025L-656.467862683634,-301.58320488773785M-90.66412871126352,-84.07579758921462L-90.66412871126352,46.6530763348963M-90.66412871126352,46.6530763348963L-186.20443959447607,76.96892244266878" style="fill:none;stroke:rgb(0,0,0);stroke-width:1;stroke-linecap:round"></path><path d="M-383.6099983955864,-112.44898494969155L-383.6099983955864,18.279888974419364L-186.20443959447607,-53.759951481442144zM-186.20443959447607,76.96892244266878L-383.6099983955864,18.279888974419364L-90.66412871126349,46.6530763348963zM-186.20443959447607,-53.759951481442144L-90.66412871126349,-84.07579758921462L-288.06968751237383,-142.76483105746402z" style="fill:rgb(238,238,238); fill-opacity: 0.4"></path><path d="M-102.65485829043665,32.281252971176386L-102.65485829043665,38.40916893636908M-102.65485829043665,38.40916893636908L-107.13331036308725,39.830224222670914M-102.65485794644584,32.2812536223615L-102.65485794644584,38.40916647073496M-102.65485794644584,38.40916647073496L-107.13331001909643,39.83022175703679M-102.65485794644584,38.40916647073496L-106.2418747864837,20.836231577124906M-102.65485794644584,32.2812536223615L-107.13331001909643,33.70230890866333M-102.65485794644584,32.2812536223615L-106.2418747864837,20.836231577124906M-102.65485829043665,32.281252971176386L-107.13331036308725,33.702308257478215" style="fill:none;stroke:rgb(0,0,0);stroke-width:1;stroke-linecap:round"></path><path d="M-107.13331036308722,39.830224222670914L-102.65485829043664,38.40916893636908L-102.65485829043664,32.28125297117638z" style="fill:rgb(153,221,255); fill-opacity: 0.4"></path><path d="M-102.65485829043664,32.28125297117638L-102.65485829043664,38.40916893636908L-107.13331036308722,39.830224222670914z" style="fill:rgb(255,187,187); fill-opacity: 0.4"></path><path d="M-107.13331036308722,33.70230825747821L-107.13331036308722,39.830224222670914L-102.65485829043664,32.28125297117638z" style="fill:rgb(153,221,255); fill-opacity: 0.4"></path><path d="M-102.65485829043664,32.28125297117638L-107.13331036308722,39.830224222670914L-107.13331036308722,33.70230825747821z" style="fill:rgb(255,187,187); fill-opacity: 0.4"></path><path d="M-107.13331036308725,33.702308257478215L-107.13331036308725,39.830224222670914M-107.13331001909643,39.83022175703679L-107.13331001909643,33.70230890866333M-107.13331001909643,39.83022175703679L-106.2418747864837,20.836231577124906M-107.13331001909643,33.70230890866333L-106.2418747864837,20.836231577124906" style="fill:none;stroke:rgb(0,0,0);stroke-width:1;stroke-linecap:round"></path><path d="M-102.65485829043664,38.40916893636908L-102.65485829043664,32.28125297117638L-106.2418749584791,20.83623125153235zM-107.13331036308722,39.830224222670914L-102.65485829043664,38.40916893636908L-106.2418749584791,20.83623125153235zM-102.65485829043664,32.28125297117638L-107.13331036308722,33.70230825747821L-106.2418749584791,20.83623125153235zM-107.13331036308722,33.70230825747821L-107.13331036308722,39.830224222670914L-106.2418749584791,20.83623125153235z" style="fill:rgb(255,187,187); fill-opacity: 0.4"></path><path d="M-90.66412871126352,-84.07579758921462L-186.20443959447607,-53.759951481442144" style="fill:none;stroke:rgb(0,0,0);stroke-width:1;stroke-linecap:round"></path><path d="M-186.20443959447607,76.96892244266878L-90.66412871126349,46.6530763348963L-90.66412871126349,-84.07579758921462zM-383.6099983955864,18.279888974419364L-186.20443959447607,76.96892244266878L-186.20443959447607,-53.759951481442144z" style="fill:rgb(238,238,238); fill-opacity: 0.4"></path><path d="M295.68422045149083,143.5129670570175L-99.12689715072987,26.134900120518676M-99.12689715072987,-39.22953684153679L-99.12689715072987,26.134900120518676M-99.12689715072987,26.134900120518676L-146.89705259233617,41.292823174404916M295.68422045149083,78.14853009496204L-99.12689715072987,-39.22953684153679M-99.12689715072987,-39.22953684153679L-146.89705259233617,-24.071613787650538" style="fill:none;stroke:rgb(0,0,0);stroke-width:1;stroke-linecap:round"></path><path d="M-99.12689715072987,-39.229536841536785L-99.12689715072987,26.134900120518676L-146.89705259233617,-24.071613787650545zM-99.12689715072987,26.134900120518676L-146.89705259233617,41.292823174404916L-146.89705259233617,-24.071613787650545z" style="fill:rgb(238,238,238); fill-opacity: 0.4"></path><path d="M266.22213373338826,118.54273672716234L-128.5889838688324,1.1646697906635195M-128.5889838688324,-4.9632461745291785L-128.5889838688324,1.1646697906635195M-128.5889838688324,1.1646697906635195L-133.06743594148298,2.5857250769653604M266.22213373338826,112.41482076196965L-128.5889838688324,-4.9632461745291785M-128.5889838688324,-4.9632461745291785L-133.06743594148298,-3.5421908882273385" style="fill:none;stroke:rgb(0,0,0);stroke-width:1;stroke-linecap:round"></path><path d="M-186.20443959447607,-53.759951481442144L-186.20443959447607,76.96892244266878L-90.66412871126349,-84.07579758921462z" style="fill:rgb(238,238,238); fill-opacity: 0.4"></path><path d="M-128.5889838688324,-4.963246174529177L-128.5889838688324,1.1646697906635217L-133.06743594148298,-3.542190888227342zM-128.5889838688324,1.1646697906635217L-133.06743594148298,2.5857250769653564L-133.06743594148298,-3.542190888227342z" style="fill:rgb(153,221,255); fill-opacity: 0.4"></path><path d="M-133.06743594148298,-3.5421908882273385L-133.06743594148298,2.5857250769653604M-133.06743594148298,2.5857250769653604L261.74368166073765,119.96379201346419M-186.20443959447607,-53.759951481442144L-186.20443959447607,76.96892244266878M-133.06743594148298,-3.5421908882273385L261.74368166073765,113.83587604827147M-146.89705259233617,-24.071613787650538L-146.89705259233617,41.292823174404916M-146.89705259233617,41.292823174404916L247.91406500988455,158.67089011090374M-146.89705259233617,-24.071613787650538L247.91406500988455,93.30645314884828" style="fill:none;stroke:rgb(0,0,0);stroke-width:1;stroke-linecap:round"></path><path d="M295.6842204514908,143.5129670570175L-99.12689715072987,26.134900120518676L-99.12689715072987,-39.229536841536785zM-146.89705259233617,41.292823174404916L-99.12689715072987,26.134900120518676L295.6842204514908,143.5129670570175z" style="fill:rgb(238,238,238); fill-opacity: 0.4"></path><path d="M266.22213373338826,118.54273672716235L-128.5889838688324,1.1646697906635217L-128.5889838688324,-4.963246174529177zM-133.06743594148298,2.5857250769653564L-128.5889838688324,1.1646697906635217L266.22213373338826,118.54273672716235zM-133.06743594148298,-3.542190888227342L261.74368166073765,113.83587604827149L-128.5889838688324,-4.963246174529177zM-133.06743594148298,-3.542190888227342L-133.06743594148298,2.5857250769653564L261.74368166073765,113.83587604827149z" style="fill:rgb(153,221,255); fill-opacity: 0.4"></path><path d="M-146.89705259233617,-24.071613787650545L247.9140650098845,93.30645314884829L-99.12689715072987,-39.229536841536785zM-146.89705259233617,-24.071613787650545L-146.89705259233617,41.292823174404916L247.9140650098845,93.30645314884829zM295.6842204514908,78.14853009496204L295.6842204514908,143.5129670570175L-99.12689715072987,-39.229536841536785zM247.9140650098845,158.67089011090374L-146.89705259233617,41.292823174404916L295.6842204514908,143.5129670570175zM247.9140650098845,93.30645314884829L295.6842204514908,78.14853009496204L-99.12689715072987,-39.229536841536785z" style="fill:rgb(238,238,238); fill-opacity: 0.4"></path><path d="M266.22213373338826,112.41482076196966L266.22213373338826,118.54273672716235L-128.5889838688324,-4.963246174529177zM261.74368166073765,119.96379201346419L-133.06743594148298,2.5857250769653564L266.22213373338826,118.54273672716235zM261.74368166073765,113.83587604827149L266.22213373338826,112.41482076196966L-128.5889838688324,-4.963246174529177zM-133.06743594148298,2.5857250769653564L261.74368166073765,119.96379201346419L261.74368166073765,113.83587604827149z" style="fill:rgb(153,221,255); fill-opacity: 0.4"></path><path d="M-146.89705259233617,41.292823174404916L247.9140650098845,158.67089011090374L247.9140650098845,93.30645314884829z" style="fill:rgb(238,238,238); fill-opacity: 0.4"></path><path d="M295.68422045149083,78.14853009496204L295.68422045149083,143.5129670570175M295.68422045149083,143.5129670570175L247.91406500988455,158.67089011090374M295.68422045149083,78.14853009496204L247.91406500988455,93.30645314884828" style="fill:none;stroke:rgb(0,0,0);stroke-width:1;stroke-linecap:round"></path><path d="M247.9140650098845,158.67089011090374L295.6842204514908,143.5129670570175L295.6842204514908,78.14853009496204z" style="fill:rgb(238,238,238); fill-opacity: 0.4"></path><path d="M693.9751084746467,252.92448625618104L299.163990872426,135.5464193196822M299.163990872426,102.86420083865447L299.163990872426,135.5464193196822M299.163990872426,135.5464193196822L275.2789131516228,143.12538084662532M266.22213373338826,112.41482076196965L266.22213373338826,118.54273672716234M266.22213373338826,118.54273672716234L261.74368166073765,119.96379201346419M266.22213359453883,112.41482059936466L266.22213359453883,118.54273675935855M266.22213359453883,118.54273675935855L261.74368209135287,119.96379186496387M266.22213359453883,118.54273675935855L283.3133344257873,121.8845890985306M693.9751084746467,220.2422677751533L299.163990872426,102.86420083865447M299.163990872426,102.86420083865447L275.2789131516228,110.4431623655976M266.22213373338826,112.41482076196965L261.74368166073765,113.83587604827147M266.22213359453883,112.41482059936466L261.74368209135287,113.83587570496998M266.22213359453883,112.41482059936466L283.3133344257873,121.8845890985306" style="fill:none;stroke:rgb(0,0,0);stroke-width:1;stroke-linecap:round"></path><path d="M261.74368166073765,119.96379201346419L266.22213373338826,118.54273672716235L266.22213373338826,112.41482076196966z" style="fill:rgb(153,221,255); fill-opacity: 0.4"></path><path d="M266.22213373338826,112.41482076196966L266.22213373338826,118.54273672716235L261.74368166073765,119.96379201346419z" style="fill:rgb(255,187,187); fill-opacity: 0.4"></path><path d="M261.74368166073765,113.83587604827149L261.74368166073765,119.96379201346419L266.22213373338826,112.41482076196966z" style="fill:rgb(153,221,255); fill-opacity: 0.4"></path><path d="M266.22213373338826,112.41482076196966L261.74368166073765,119.96379201346419L261.74368166073765,113.83587604827149z" style="fill:rgb(255,187,187); fill-opacity: 0.4"></path><path d="M261.74368209135287,119.96379186496387L261.74368209135287,113.83587570496998M261.74368209135287,119.96379186496387L283.3133344257873,121.8845890985306M261.74368166073765,113.83587604827147L261.74368166073765,119.96379201346419" style="fill:none;stroke:rgb(0,0,0);stroke-width:1;stroke-linecap:round"></path><path d="M266.22213373338826,118.54273672716235L266.22213373338826,112.41482076196966L283.313334495212,121.8845889850319z" style="fill:rgb(255,187,187); fill-opacity: 0.4"></path><path d="M247.9140650098845,93.30645314884829L247.9140650098845,158.67089011090374L295.6842204514908,78.14853009496204z" style="fill:rgb(238,238,238); fill-opacity: 0.4"></path><path d="M261.74368166073765,119.96379201346419L266.22213373338826,118.54273672716235L283.313334495212,121.8845889850319z" style="fill:rgb(255,187,187); fill-opacity: 0.4"></path><path d="M299.163990872426,102.86420083865445L299.163990872426,135.54641931968217L275.2789131516228,110.44316236559759z" style="fill:rgb(238,238,238); fill-opacity: 0.4"></path><path d="M261.74368209135287,113.83587570496998L283.3133344257873,121.8845890985306M247.91406500988455,93.30645314884828L247.91406500988455,158.67089011090374" style="fill:none;stroke:rgb(0,0,0);stroke-width:1;stroke-linecap:round"></path><path d="M266.22213373338826,112.41482076196966L261.74368166073765,113.83587604827149L283.313334495212,121.8845889850319zM261.74368166073765,113.83587604827149L261.74368166073765,119.96379201346419L283.313334495212,121.8845889850319z" style="fill:rgb(255,187,187); fill-opacity: 0.4"></path><path d="M299.163990872426,135.54641931968217L275.2789131516228,143.1253808466253L275.2789131516228,110.44316236559759z" style="fill:rgb(238,238,238); fill-opacity: 0.4"></path><path d="M275.2789131516228,110.4431623655976L275.2789131516228,143.12538084662532M275.2789131516228,143.12538084662532L670.0900307538436,260.50344778312416M275.2789131516228,110.4431623655976L670.0900307538436,227.8212293020964" style="fill:none;stroke:rgb(0,0,0);stroke-width:1;stroke-linecap:round"></path><path d="M693.9751084746468,252.92448625618104L299.163990872426,135.54641931968217L299.163990872426,102.86420083865445zM275.2789131516228,143.1253808466253L299.163990872426,135.54641931968217L693.9751084746468,252.92448625618104zM275.2789131516228,110.44316236559759L670.0900307538436,227.8212293020964L299.163990872426,102.86420083865445zM275.2789131516228,110.44316236559759L275.2789131516228,143.1253808466253L670.0900307538436,227.8212293020964zM693.9751084746468,220.2422677751533L693.9751084746468,252.92448625618104L299.163990872426,102.86420083865445zM670.0900307538436,260.50344778312416L275.2789131516228,143.1253808466253L693.9751084746468,252.92448625618104zM670.0900307538436,227.8212293020964L693.9751084746468,220.2422677751533L299.163990872426,102.86420083865445zM275.2789131516228,143.1253808466253L670.0900307538436,260.50344778312416L670.0900307538436,227.8212293020964z" style="fill:rgb(238,238,238); fill-opacity: 0.4"></path><path d="M693.9751084746467,220.2422677751533L693.9751084746467,252.92448625618104M693.9751084746467,252.92448625618104L670.0900307538436,260.50344778312416M703.5743890375331,311.2242146073793L700.4899271812659,310.30719845943787M700.4899271812659,179.57832453532697L700.4899271812659,310.30719845943787M700.4899271812659,310.30719845943787L697.5042924661655,311.25456865030577M693.9751084746467,220.2422677751533L670.0900307538436,227.8212293020964" style="fill:none;stroke:rgb(0,0,0);stroke-width:1;stroke-linecap:round"></path><path d="M670.0900307538436,260.50344778312416L693.9751084746468,252.92448625618104L693.9751084746468,220.2422677751533zM697.5042924661655,311.2545686503058L700.4899271812658,310.3071984594379L703.574389037533,311.2242146073793z" style="fill:rgb(238,238,238); fill-opacity: 0.4"></path><path d="M703.5743890375331,180.49534068326838L703.5743890375331,311.2242146073793M703.5743890375331,311.2242146073793L700.5887543224328,312.1715847982472M697.5042924661655,180.52569472619484L697.5042924661655,311.25456865030577M697.5042924661655,311.25456865030577L700.5887543224328,312.1715847982472" style="fill:none;stroke:rgb(0,0,0);stroke-width:1;stroke-linecap:round"></path><path d="M700.5887543224327,312.1715847982472L697.5042924661655,311.2545686503058L703.574389037533,311.2242146073793z" style="fill:rgb(238,238,238); fill-opacity: 0.4"></path><path d="M700.5887543224328,181.44271087413628L700.5887543224328,312.1715847982472M683.7290236351922,240.8772166605065L693.7021169704567,243.84223553885036" style="fill:none;stroke:rgb(0,0,0);stroke-width:1;stroke-linecap:round"></path><path d="M670.0900307538436,227.8212293020964L670.0900307538436,260.50344778312416L693.9751084746468,220.2422677751533z" style="fill:rgb(238,238,238); fill-opacity: 0.4"></path><path d="M670.0900307538436,227.8212293020964L670.0900307538436,260.50344778312416" style="fill:none;stroke:rgb(0,0,0);stroke-width:1;stroke-linecap:round"></path><path d="M703.574389037533,311.2242146073793L700.4899271812658,310.3071984594379L700.4899271812658,179.578324535327zM700.4899271812658,310.3071984594379L697.5042924661655,311.2545686503058L697.5042924661655,180.52569472619487zM700.5887543224327,312.1715847982472L703.574389037533,311.2242146073793L703.574389037533,180.49534068326838zM697.5042924661655,311.2545686503058L700.5887543224327,312.1715847982472L700.5887543224327,181.44271087413628z" style="fill:rgb(238,238,238); fill-opacity: 0.4"></path><path d="M693.3471785427212,244.11266338446686L693.7021169704567,244.3528952026164L698.8428867309023,245.3705957854193zM693.9214809741411,243.35949691098224L693.4827529667724,243.4987094656788L698.8428867309023,245.3705957854193zM693.4827529667724,243.4987094656788L693.3471785427212,244.11266338446686L698.8428867309023,245.3705957854193z" style="fill:rgb(0,0,0)"></path><path d="M702.2357947727963,246.37931354815487L712.2088881080608,249.3443324264987" style="fill:none;stroke:rgb(0,0,0);stroke-width:1;stroke-linecap:round"></path><path d="M700.4899271812658,179.578324535327L700.4899271812658,310.3071984594379L697.5042924661655,180.52569472619487zM703.574389037533,180.49534068326838L703.574389037533,311.2242146073793L700.4899271812658,179.578324535327zM697.5042924661655,180.52569472619487L697.5042924661655,311.2545686503058L700.5887543224327,181.44271087413628zM700.5887543224327,181.44271087413628L700.5887543224327,312.1715847982472L703.574389037533,180.49534068326838z" style="fill:rgb(238,238,238); fill-opacity: 0.4"></path><path d="M711.8539496803252,249.61476027211526L712.2088881080608,249.8549920902648L717.3496578685063,250.87269267306772zM712.428252111745,248.86159379863065L711.9895241043764,249.0008063533272L717.3496578685063,250.87269267306772zM711.9895241043764,249.0008063533272L711.8539496803252,249.61476027211526L717.3496578685063,250.87269267306772z" style="fill:rgb(0,0,0)"></path><path d="M722.0811601751371,252.38319386050435L718.9966983188699,251.46617771256297M718.9966983188699,249.42353905749874L718.9966983188699,251.46617771256297M718.9966983188699,251.46617771256297L716.0110636037695,252.41354790343084M722.0811601751371,250.34055520544013L718.9966983188699,249.42353905749874M718.9966983188699,249.42353905749874L716.0110636037695,250.37090924836662" style="fill:none;stroke:rgb(0,0,0);stroke-width:1;stroke-linecap:round"></path><path d="M722.0811601751371,252.38319386050435L718.9966983188698,251.46617771256297L718.9966983188698,249.42353905749872zM718.9966983188698,249.42353905749872L718.9966983188698,251.46617771256297L716.0110636037695,250.3709092483666zM716.0110636037695,252.41354790343084L718.9966983188698,251.46617771256297L722.0811601751371,252.38319386050435zM718.9966983188698,251.46617771256297L716.0110636037695,252.41354790343084L716.0110636037695,250.3709092483666zM722.0811601751371,250.3405552054401L722.0811601751371,252.38319386050435L718.9966983188698,249.42353905749872z" style="fill:rgb(238,238,238); fill-opacity: 0.4"></path><path d="M722.0811601751371,250.34055520544013L722.0811601751371,252.38319386050435M722.0811601751371,252.38319386050435L719.0955254600367,253.33056405137225M716.0110636037695,250.37090924836662L716.0110636037695,252.41354790343084M716.0110636037695,252.41354790343084L719.0955254600367,253.33056405137225M722.0811601751371,250.34055520544013L719.0955254600367,251.28792539630803" style="fill:none;stroke:rgb(0,0,0);stroke-width:1;stroke-linecap:round"></path><path d="M719.0955254600368,251.287925396308L722.0811601751371,250.3405552054401L718.9966983188698,249.42353905749872zM716.0110636037695,250.3709092483666L719.0955254600368,251.287925396308L718.9966983188698,249.42353905749872z" style="fill:rgb(238,238,238); fill-opacity: 0.4"></path><path d="M716.0110636037695,250.37090924836662L719.0955254600367,251.28792539630803" style="fill:none;stroke:rgb(0,0,0);stroke-width:1;stroke-linecap:round"></path><path d="M719.0955254600368,253.33056405137225L716.0110636037695,252.41354790343084L722.0811601751371,252.38319386050435zM719.0955254600368,253.33056405137225L722.0811601751371,252.38319386050435L722.0811601751371,250.3405552054401zM716.0110636037695,250.3709092483666L716.0110636037695,252.41354790343084L719.0955254600368,251.287925396308z" style="fill:rgb(238,238,238); fill-opacity: 0.4"></path><path d="M703.5743890375331,180.49534068326838L700.4899271812659,179.57832453532697M700.4899271812659,179.57832453532697L697.5042924661655,180.52569472619484" style="fill:none;stroke:rgb(0,0,0);stroke-width:1;stroke-linecap:round"></path><path d="M716.0110636037695,252.41354790343084L719.0955254600368,253.33056405137225L719.0955254600368,251.287925396308zM719.0955254600368,251.287925396308L719.0955254600368,253.33056405137225L722.0811601751371,250.3405552054401z" style="fill:rgb(238,238,238); fill-opacity: 0.4"></path><path d="M719.0955254600367,251.28792539630803L719.0955254600367,253.33056405137225M703.5743890375331,180.49534068326838L700.5887543224328,181.44271087413628" style="fill:none;stroke:rgb(0,0,0);stroke-width:1;stroke-linecap:round"></path><path d="M700.5887543224327,181.44271087413628L703.574389037533,180.49534068326838L700.4899271812658,179.578324535327zM697.5042924661655,180.52569472619487L700.5887543224327,181.44271087413628L700.4899271812658,179.578324535327z" style="fill:rgb(238,238,238); fill-opacity: 0.4"></path><path d="M697.5042924661655,180.52569472619484L700.5887543224328,181.44271087413628" style="fill:none;stroke:rgb(0,0,0);stroke-width:1;stroke-linecap:round"></path></svg>